<?xml version="1.0" standalone="no"?>
<!DOCTYPE svg PUBLIC "-//W3C//DTD SVG 20010904//EN"
 "http://www.w3.org/TR/2001/REC-SVG-20010904/DTD/svg10.dtd">
<svg version="1.0" xmlns="http://www.w3.org/2000/svg"
 width="260.000000pt" height="260.000000pt" viewBox="0 0 260.000000 260.000000"
 preserveAspectRatio="xMidYMid meet">
<metadata>
Created by potrace 1.11, written by Peter Selinger 2001-2013
</metadata>
<g transform="translate(0.000000,260.000000) scale(0.100000,-0.100000)"
fill="#000000" stroke="none">
<path d="M0 1300 l0 -1300 1300 0 1300 0 0 1300 0 1300 -1300 0 -1300 0 0
-1300z m1365 823 c27 -38 124 -142 215 -233 170 -169 199 -209 244 -338 l15
-42 -87 73 c-48 40 -140 117 -204 171 -65 54 -147 130 -182 169 l-64 71 -69
-75 c-251 -269 -292 -331 -347 -519 l-25 -85 47 -48 c26 -27 97 -82 157 -122
61 -40 138 -99 173 -130 l63 -58 26 24 c70 65 155 214 176 306 l13 57 52 -48
c29 -27 52 -55 52 -62 0 -58 -96 -224 -191 -329 -30 -33 -69 -78 -86 -100
l-33 -39 -97 95 c-54 53 -145 131 -203 174 -120 90 -207 169 -245 224 -25 37
-25 41 -15 107 28 176 108 329 262 499 49 55 135 151 190 213 56 61 104 112
108 112 3 0 28 -30 55 -67z m22 -381 c49 -48 142 -128 208 -178 66 -50 153
-126 193 -168 63 -67 72 -81 72 -114 0 -64 -39 -201 -81 -286 -52 -105 -100
-169 -253 -336 -69 -75 -146 -162 -172 -193 -27 -31 -52 -57 -56 -57 -4 0 -28
28 -54 63 -26 34 -120 136 -210 227 -89 91 -173 184 -187 206 -31 51 -80 164
-73 171 2 3 24 -13 48 -34 24 -22 99 -85 168 -140 69 -56 168 -145 220 -198
l95 -97 68 73 c253 273 300 344 348 528 l22 85 -54 50 c-30 27 -97 78 -150
112 -53 34 -127 90 -165 123 -38 33 -72 61 -75 61 -3 0 -32 -32 -63 -72 -67
-83 -110 -164 -131 -244 -8 -32 -16 -59 -18 -60 -2 -2 -27 18 -56 44 l-53 47
17 50 c23 70 77 164 133 233 47 59 165 192 169 192 2 0 42 -39 90 -88z"/>
</g>
</svg>
